<svg xmlns="http://www.w3.org/2000/svg" viewBox="450 720 2120 1500"
     style="width: 3000px !important; height: 3000px !important; border:1rem solid black;">

    

  /*<defs>
    <filter id="sombraTexto" x="-50%" y="-50%" width="200%" height="200%">
      <feMorphology in="SourceAlpha" operator="dilate" radius="3" result="formaGorda"/>
      <feGaussianBlur in="formaGorda" stdDeviation="30" result="borraoGordo"/>
      <feOffset in="borraoGordo" dx="0" dy="0" result="sombraFinal"/>
      <feMerge>
        <feMergeNode in="sombraFinal"/>
        <feMergeNode in="SourceGraphic"/>
      </feMerge>
    </filter>
  </defs>*/

  <path id='heart-bg' 
        d="M 1000 1500 Q 1200 1700 1500 1800 Q 1800 1700 2000 1500 C 2300 1100 1800 800 1500 1100 C 1200 800 700 1100 1000 1500 Z" 
        style="/*filter: url(#sombraTexto) !important; */
               fill: white !important; 
               stroke: none !important;" />

  <path id='sword' 
        d="M 1150 1600 L 1150 1800 L 1350 1800 L 2100 1100 L 1900 900 Z" 
        style="stroke-width: 3px !important; 
               stroke: none !important; 
            /*   filter: url(#sombraTexto) !important; */
               fill: gray !important;" />

  <path d="M 1200 1750 L 2000 1000 M 2100 1300 L 1700 900 L 1800 800 L 1950 950 L 2100 800 L 2200 900 L 2050 1050 L 2200 1200 L 2100 1300 Z" 
        style="paint-order: stroke !important; 
               stroke-width: 3px !important; 
               stroke: black !important; 
             /*  filter: url(#sombraTexto) !important; */
               fill: yellow !important;" />
      
  <path id='cross' 
        d="M 1950 1600 L 1800 1800 L 1050 1300 L 900 1500 L 750 1400 L 900 1200 L 750 1100 L 900 900 L 1050 1000 L 1200 800 L 1350 900 L 1200 1100 L 1950 1600 Z" 
        style="stroke: black !important; 
               /*filter: url(#sombraTexto) !important; */
               fill: #583E39 !important;" />
      
  <path id='heart' 
        d="M 1000 1500 Q 1200 1700 1500 1800 Q 1800 1700 2000 1500 C 2300 1100 1800 800 1500 1100 C 1200 800 700 1100 1000 1500 Z" 
        style="fill: red !important; 
               stroke: black !important;" />

  <text x="1500" y="500" 
        style="font-family: Arial !important; 
               font-size: 135px !important; 
               font-weight: bold !important; 
               text-anchor: middle !important; 
               fill: #cadce5 !important; 
               stroke: black !important;
               stroke-width: 1.2px !important;
               paint-order: stroke !important; 
               /*filter: url(#sombraTexto) !important; */
               transform: scale(1, 3) !important; 
               letter-spacing: 15px !important;">VICTORMACEDO.dev.br</text>
</svg>
